HIERARCHY
ROOT Pelvis
{
	OFFSET 0.000000 0.000000 0.000000
	CHANNELS 6 Xposition Yposition Zposition Xrotation Yrotation Zrotation
	JOINT LeftUpLeg_virtual
	{
		OFFSET 0.000000 0.000000 0.000000
		CHANNELS 3 Xrotation Yrotation Zrotation
		JOINT LeftUpLeg
		{
			OFFSET 18.735201 -5.666702 -4.541200
			CHANNELS 3 Xrotation Yrotation Zrotation
			JOINT LeftLeg
			{
				OFFSET -0.021200 -31.938179 0.493100
				CHANNELS 3 Xrotation Yrotation Zrotation
				JOINT LeftFoot
				{
					OFFSET 0.021200 -31.938179 -4.336299
					CHANNELS 3 Xrotation Yrotation Zrotation
					JOINT LeftToeBase
					{
						OFFSET 0.943001 -26.722000 15.023500
						CHANNELS 3 Xrotation Yrotation Zrotation
						End Site
						{
							OFFSET 0 0 0
						}
					}
				}
			}
		}
	}
	JOINT RightUpLeg_virtual
	{
		OFFSET 0.000000 0.000000 0.000000
		CHANNELS 3 Xrotation Yrotation Zrotation
		JOINT RightUpLeg
		{
			OFFSET -18.735201 -5.666702 -4.541200
			CHANNELS 3 Xrotation Yrotation Zrotation
			JOINT RightLeg
			{
				OFFSET 0.018946 -31.938133 0.493100
				CHANNELS 3 Xrotation Yrotation Zrotation
				JOINT RightFoot
				{
					OFFSET -0.018946 -31.938126 -4.336299
					CHANNELS 3 Xrotation Yrotation Zrotation
					JOINT RightToeBase
					{
						OFFSET -0.943001 -26.722004 15.023500
						CHANNELS 3 Xrotation Yrotation Zrotation
						End Site
						{
							OFFSET 0 0 0
						}
					}
				}
			}
		}
	}
	JOINT Hips_virtual
	{
		OFFSET 0.000000 0.000000 0.000000
		CHANNELS 3 Xrotation Yrotation Zrotation
		JOINT Hips
		{
			OFFSET -0.000000 -0.000000 -0.000000
			CHANNELS 3 Xrotation Yrotation Zrotation
			JOINT Spine
			{
				OFFSET 0.000000 10.199997 -0.299500
				CHANNELS 3 Xrotation Yrotation Zrotation
				JOINT Spine1
				{
					OFFSET 0.000000 11.900002 -1.516600
					CHANNELS 3 Xrotation Yrotation Zrotation
					JOINT Spine2
					{
						OFFSET 0.000000 13.600006 -2.842500
						CHANNELS 3 Xrotation Yrotation Zrotation
						JOINT Neck_virtual
						{
							OFFSET 0.000000 0.000000 0.000000
							CHANNELS 3 Xrotation Yrotation Zrotation
							JOINT Neck
							{
								OFFSET 0.000000 9.624100 -2.890100
								CHANNELS 3 Xrotation Yrotation Zrotation
								JOINT Head
								{
									OFFSET 0.000000 14.068802 -1.351900
									CHANNELS 3 Xrotation Yrotation Zrotation
									End Site
									{
										OFFSET 0 0 0
									}
								}
							}
						}
						JOINT LeftShoulder_virtual
						{
							OFFSET 0.000000 0.000000 0.000000
							CHANNELS 3 Xrotation Yrotation Zrotation
							JOINT LeftShoulder
							{
								OFFSET 15.263000 10.923401 -0.547700
								CHANNELS 3 Xrotation Yrotation Zrotation
								JOINT LeftArm
								{
									OFFSET 25.438599 -2.830597 -13.032500
									CHANNELS 3 Xrotation Yrotation Zrotation
									JOINT LeftForeArm
									{
										OFFSET 29.960503 0.000000 0.000000
										CHANNELS 3 Xrotation Yrotation Zrotation
										JOINT LeftHand
										{
											OFFSET 27.849251 0.000000 0.000000
											CHANNELS 3 Xrotation Yrotation Zrotation
											End Site
											{
												OFFSET 0 0 0
											}
										}
									}
								}
							}
						}
						JOINT RightShoulder_virtual
						{
							OFFSET 0.000000 0.000000 0.000000
							CHANNELS 3 Xrotation Yrotation Zrotation
							JOINT RightShoulder
							{
								OFFSET -15.263000 10.923401 -0.547700
								CHANNELS 3 Xrotation Yrotation Zrotation
								JOINT RightArm
								{
									OFFSET -25.438599 -2.830597 -13.032500
									CHANNELS 3 Xrotation Yrotation Zrotation
									JOINT RightForeArm
									{
										OFFSET -29.960503 0.000000 0.000000
										CHANNELS 3 Xrotation Yrotation Zrotation
										JOINT RightHand
										{
											OFFSET -27.849251 0.000000 0.000000
											CHANNELS 3 Xrotation Yrotation Zrotation
											End Site
											{
												OFFSET 0 0 0
											}
										}
									}
								}
							}
						}
					}
				}
			}
		}
	}
}
MOTION
Frames: 10
Frame Time: 0.03333333
-0.216415 80.782600 51.742134 0.000000 0.000000 0.000000 39.334919 -22.692247 10.818361 -102.807973 11.000992 30.720681 113.771151 -17.314326 -17.500458 -9.559752 21.750001 -3.300902 0.000000 0.000000 0.000000 38.444123 -22.755474 13.814864 -84.907700 -1.495508 -0.526809 56.316344 -1.595791 -6.420905 -54.361011 -2.050111 19.118241 0.000000 0.000000 0.000000 41.339932 -19.197626 11.793189 -0.858906 0.210462 0.097501 -6.889888 6.110912 2.223413 7.399847 2.696160 -1.508040 0.000000 0.000000 0.000000 1.473942 -0.208933 0.370706 0.265488 -2.090197 -2.171513 0.000000 0.000000 0.000000 0.804801 0.874778 -1.059294 0.384188 -7.376380 5.200761 -7.690910 -6.355226 -41.859501 -35.906130 -72.435386 -51.794223 0.000000 0.000000 0.000000 -0.546749 -0.305783 -0.118124 10.746124 16.291393 -4.238283 -19.994163 16.877920 7.678143 -152.153105 60.301008 169.585811 0.000000 0.000000 0.000000 
-1.923019 80.898018 60.393867 0.000000 0.000000 0.000000 35.925624 -21.539939 9.551147 -102.535305 6.093601 25.713581 101.736105 -17.063891 -18.129914 -21.166077 17.228628 -10.750508 0.000000 0.000000 0.000000 37.126880 -21.361410 11.507697 -82.852975 -3.163947 -2.081236 64.875350 0.230329 -7.500568 -51.144388 -1.917456 24.768216 0.000000 0.000000 0.000000 38.802510 -17.274513 9.676902 -0.787109 0.141801 0.277450 -4.899250 6.179039 2.595193 7.198055 2.756366 -1.472518 0.000000 0.000000 0.000000 1.901112 0.116905 0.456504 0.317633 -2.229442 -1.974959 0.000000 0.000000 0.000000 0.171058 1.444838 -0.773917 -0.053332 -4.759677 4.255892 -4.144474 -5.627675 -42.468019 -38.577455 -73.402978 -54.771885 0.000000 0.000000 0.000000 -1.204276 -0.088026 -0.027753 9.464428 15.115157 -2.601329 -21.171192 12.230442 5.913720 -152.710107 58.925538 170.396827 0.000000 0.000000 0.000000 
-4.035492 80.754150 69.667007 0.000000 0.000000 0.000000 31.955730 -17.287634 5.938321 -100.365805 -1.672986 20.439572 84.106567 -15.999778 -19.131001 -32.658341 12.401545 -20.641298 0.000000 0.000000 0.000000 34.392909 -17.637830 6.568371 -74.459580 -7.678581 -1.015888 71.736370 2.469876 -10.022301 -46.484775 -0.012474 29.366958 0.000000 0.000000 0.000000 34.464042 -14.514190 5.656761 -0.683077 -0.089917 0.367292 -2.657011 6.759716 4.106215 6.475143 2.924997 -1.057310 0.000000 0.000000 0.000000 1.428222 0.961874 0.576918 0.065002 -2.265363 -1.606136 0.000000 0.000000 0.000000 -0.668814 2.340163 -0.375688 -0.263538 -2.232137 3.386116 1.493817 -3.221800 -42.433151 -45.009512 -75.420854 -61.258150 0.000000 0.000000 0.000000 -1.628729 0.461425 -0.089210 6.927495 11.351635 1.384920 -22.818412 2.577831 3.632154 -153.524798 56.826873 171.737389 0.000000 0.000000 0.000000 
-6.023046 80.126007 78.135109 0.000000 0.000000 0.000000 27.873976 -11.164385 1.349507 -95.305796 -11.616307 15.026947 67.737609 -13.832935 -18.333590 -39.499790 7.697519 -28.934990 0.000000 0.000000 0.000000 29.886497 -12.230053 0.526429 -59.606542 -12.714405 3.975988 76.533281 4.038529 -12.410055 -43.204700 2.420800 30.983773 0.000000 0.000000 0.000000 28.974308 -11.371354 1.046131 -0.685669 -0.241233 0.214061 -0.701290 7.886953 5.969836 5.202791 3.316120 -0.736708 0.000000 0.000000 0.000000 0.290896 1.992134 0.511385 -0.332989 -2.076136 -1.105791 0.000000 0.000000 0.000000 -1.627925 3.227151 -0.133042 -0.216644 -0.842784 2.097380 7.860165 -0.193971 -42.024972 -52.264604 -77.113956 -68.204616 0.000000 0.000000 0.000000 -1.712031 1.229650 -0.340796 4.273574 7.018124 6.266217 -23.366598 -7.541773 2.565016 -152.236666 57.802436 171.088343 0.000000 0.000000 0.000000 
-7.088649 79.173485 86.555054 0.000000 0.000000 0.000000 22.764990 -6.343829 -2.433713 -86.792976 -21.530445 10.993555 58.234630 -11.882446 -14.963304 -40.989830 1.913688 -33.843225 0.000000 0.000000 0.000000 23.392090 -7.222740 -4.143436 -46.052332 -15.286836 9.068172 81.990902 5.173619 -13.762006 -35.611479 6.527954 30.384476 0.000000 0.000000 0.000000 22.424983 -8.495742 -2.599088 -0.700953 -0.214361 -0.123090 0.930291 9.094442 6.814518 3.398497 3.958300 -0.704655 0.000000 0.000000 0.000000 -1.044708 2.822043 0.117213 -0.614661 -1.517381 -0.495810 0.000000 0.000000 0.000000 -2.599325 3.931337 -0.137547 -0.051373 -1.084644 0.443840 13.538823 1.677850 -41.079220 -53.932195 -77.629253 -69.359062 0.000000 0.000000 0.000000 -1.653713 2.054189 -0.727951 2.004053 4.568425 11.331316 -20.322617 -13.219455 3.277200 -145.996523 64.469746 165.564264 0.000000 0.000000 0.000000 
-7.367388 78.160065 94.854683 0.000000 0.000000 0.000000 15.550879 -4.643271 -4.474981 -72.384378 -28.046799 9.186960 54.413279 -10.697343 -10.601812 -40.110385 -5.223284 -35.754101 0.000000 0.000000 0.000000 14.716283 -4.916010 -5.824612 -43.610765 -15.901229 9.354794 91.327989 6.013067 -14.206583 -17.403894 13.280439 26.444490 0.000000 0.000000 0.000000 14.713525 -7.233524 -4.211557 -0.733785 -0.047074 -0.343437 2.411453 9.703657 5.927078 1.628605 4.547184 -0.956005 0.000000 0.000000 0.000000 -2.215787 3.115366 -0.602120 -0.570274 -0.502330 0.107626 0.000000 0.000000 0.000000 -3.402483 4.233883 -0.330278 -0.050247 -3.439480 -1.987914 15.984516 1.457592 -38.920327 -43.521241 -75.630439 -58.289108 0.000000 0.000000 0.000000 -1.538149 2.660872 -1.040994 0.121696 5.377026 15.351572 -12.509646 -11.339123 4.538610 -121.831874 75.096373 142.076008 0.000000 0.000000 0.000000 
-7.401355 77.978561 103.620415 0.000000 0.000000 0.000000 6.557341 -6.433707 -4.920900 -51.448120 -29.689599 8.900291 52.075920 -9.949749 -7.358292 -39.400636 -12.642709 -36.011766 0.000000 0.000000 0.000000 4.900603 -4.884925 -5.129093 -52.562537 -13.648233 5.390330 102.715725 6.399356 -13.905031 9.983641 18.346557 16.606456 0.000000 0.000000 0.000000 5.972542 -7.513395 -3.926246 -0.761264 0.169758 -0.290858 3.535203 8.999526 3.575482 0.516012 4.542504 -1.264054 0.000000 0.000000 0.000000 -2.877788 2.625180 -1.503629 -0.159746 0.893618 0.584655 0.000000 0.000000 0.000000 -3.786265 3.859123 -0.596034 -0.442124 -7.648197 -5.478286 13.872510 -0.619177 -35.240829 -30.060264 -69.648013 -43.833897 0.000000 0.000000 0.000000 -1.749733 2.674113 -1.219567 -1.640825 9.475589 17.483280 -0.775192 -3.060034 2.828166 -54.436806 76.843870 75.322295 0.000000 0.000000 0.000000 
-7.064349 79.309280 111.334167 0.000000 0.000000 0.000000 -3.263954 -10.166900 -4.513926 -28.326003 -27.800089 8.684369 48.879576 -9.343160 -6.394719 -38.045492 -18.660190 -34.023512 0.000000 0.000000 0.000000 -4.568923 -6.734007 -3.550652 -66.454633 -7.612944 1.838476 111.876286 6.626084 -12.431938 32.566813 15.752520 5.112134 0.000000 0.000000 0.000000 -3.631227 -9.473176 -3.088509 -0.773612 0.303419 -0.012042 4.254790 6.854525 1.341971 0.343181 3.589296 -1.492197 0.000000 0.000000 0.000000 -3.095924 1.269146 -2.189671 0.626484 2.538660 0.914154 0.000000 0.000000 0.000000 -3.432316 2.622098 -0.795161 -1.461345 -12.811547 -10.054044 8.223416 -3.427162 -30.204749 -22.297445 -60.272116 -34.882999 0.000000 0.000000 0.000000 -2.453014 1.781368 -1.252114 -2.945210 15.539580 17.816407 10.923767 7.579546 -2.701067 -27.470485 69.609852 48.578365 0.000000 0.000000 0.000000 
-6.268296 81.754776 117.987740 0.000000 0.000000 0.000000 -12.919673 -14.192820 -4.299064 -7.784973 -23.211262 8.371125 43.774703 -7.573333 -7.758446 -35.259677 -21.313351 -28.294383 0.000000 0.000000 0.000000 -13.013565 -9.908436 -2.743751 -80.203906 -1.029111 0.609310 116.916979 7.535616 -9.974982 41.369278 10.047566 -0.552408 0.000000 0.000000 0.000000 -13.313050 -12.343750 -3.164331 -0.752532 0.323432 0.301399 4.483636 3.474129 0.952486 0.725920 1.757288 -1.590850 0.000000 0.000000 0.000000 -2.781039 -0.732920 -2.400896 1.582013 4.144690 1.045223 0.000000 0.000000 0.000000 -2.564838 0.700551 -0.898952 -3.200454 -17.703386 -15.510342 1.397932 -5.900892 -24.088832 -20.103441 -51.539177 -31.465858 0.000000 0.000000 0.000000 -3.299220 0.108758 -1.133860 -3.231242 20.968025 15.651402 17.768023 18.351363 -8.662280 -26.316768 68.620151 46.719477 0.000000 0.000000 0.000000 
-5.457637 84.812439 124.966301 0.000000 0.000000 0.000000 -21.423008 -17.303652 -4.969090 8.046418 -15.584661 7.878165 37.040164 -4.424697 -10.221539 -31.466439 -19.532186 -20.226956 0.000000 0.000000 0.000000 -20.468055 -13.855281 -3.508768 -91.250672 3.432280 -0.004003 117.329495 9.765823 -6.856459 42.105435 6.889688 0.744125 0.000000 0.000000 0.000000 -22.205218 -14.779088 -4.668464 -0.677182 0.357488 0.498688 4.295482 -0.752849 2.591621 1.133661 -0.518653 -1.399228 0.000000 0.000000 0.000000 -1.870701 -2.868998 -2.204243 2.463103 5.444143 1.041347 0.000000 0.000000 0.000000 -1.601940 -1.445527 -0.910491 -5.251215 -21.304209 -20.455368 -3.999823 -7.205078 -17.084943 -22.102239 -47.612033 -32.578978 0.000000 0.000000 0.000000 -4.081883 -1.901537 -0.893838 -2.587230 23.615099 11.300789 15.777899 30.176203 -10.211196 -38.126174 73.450311 56.927223 0.000000 0.000000 0.000000 
